<?xml version="1.0" encoding="UTF-8" standalone="no"?>
<!DOCTYPE svg PUBLIC "-//W3C//DTD SVG 1.1//EN"
 "http://www.w3.org/Graphics/SVG/1.1/DTD/svg11.dtd">
<!-- Generated by graphviz version 13.1.2 (20250808.2320)
 -->
<!-- Pages: 1 -->
<svg width="864pt" height="640pt"
 viewBox="0.00 0.00 864.00 640.00" xmlns="http://www.w3.org/2000/svg" xmlns:xlink="http://www.w3.org/1999/xlink">
<g id="graph0" class="graph" transform="scale(0.604682 0.604682) rotate(0) translate(4 1054.02)">
<polygon fill="white" stroke="none" points="-4,4 -4,-1054.02 1424.85,-1054.02 1424.85,4 -4,4"/>
<g id="clust1" class="cluster">
<title>cluster_safe</title>
<polygon fill="lightgreen" stroke="black" points="8.53,-617.02 8.53,-698.02 159.59,-698.02 159.59,-617.02 8.53,-617.02"/>
<text xml:space="preserve" text-anchor="middle" x="84.06" y="-678.82" font-family="Arial Bold" font-size="16.00">Safe States</text>
</g>
<g id="clust2" class="cluster">
<title>cluster_mid</title>
<polygon fill="lightyellow" stroke="black" points="8,-295.02 8,-601.02 1145.94,-601.02 1145.94,-295.02 8,-295.02"/>
<text xml:space="preserve" text-anchor="middle" x="576.97" y="-581.82" font-family="Arial Bold" font-size="16.00">Mid States</text>
</g>
<g id="clust3" class="cluster">
<title>cluster_risky</title>
<polygon fill="lightpink" stroke="black" points="665.82,-41.02 665.82,-287.02 1412.85,-287.02 1412.85,-41.02 665.82,-41.02"/>
<text xml:space="preserve" text-anchor="middle" x="1039.34" y="-267.82" font-family="Arial Bold" font-size="16.00">Risky/Terminal</text>
</g>
<g id="clust4" class="cluster">
<title>cluster_legend</title>
<polygon fill="none" stroke="black" stroke-dasharray="5,2" points="40.88,-885.02 40.88,-1042.02 1122.6,-1042.02 1122.6,-885.02 40.88,-885.02"/>
<text xml:space="preserve" text-anchor="middle" x="581.74" y="-1022.82" font-family="Arial Bold" font-size="16.00">Legend</text>
</g>
<!-- ClearRoad -->
<g id="node1" class="node">
<title>ClearRoad</title>
<ellipse fill="forestgreen" stroke="black" cx="84.06" cy="-644.02" rx="67.53" ry="18.92"/>
<text xml:space="preserve" text-anchor="middle" x="84.06" y="-638.2" font-family="Arial Bold" font-size="16.00" fill="white">ClearRoad</text>
</g>
<!-- BehindCar -->
<g id="node2" class="node">
<title>BehindCar</title>
<ellipse fill="gold" stroke="black" cx="84.06" cy="-446.02" rx="68.06" ry="18.92"/>
<text xml:space="preserve" text-anchor="middle" x="84.06" y="-440.2" font-family="Arial Bold" font-size="16.00">BehindCar</text>
</g>
<!-- ClearRoad&#45;&gt;BehindCar -->
<g id="edge5" class="edge">
<title>ClearRoad&#45;&gt;BehindCar</title>
<path fill="none" stroke="firebrick" stroke-width="1.5" d="M84.06,-624.89C84.06,-590.73 84.06,-518.93 84.06,-477.44"/>
<polygon fill="firebrick" stroke="firebrick" stroke-width="1.5" points="87.56,-477.64 84.06,-467.64 80.56,-477.64 87.56,-477.64"/>
<text xml:space="preserve" text-anchor="middle" x="65.31" y="-547.47" font-family="Arial" font-size="14.00">Decelerate</text>
<text xml:space="preserve" text-anchor="middle" x="65.31" y="-531.72" font-family="Arial" font-size="14.00">p=0.50, r=&#45;20</text>
</g>
<!-- SchoolZone -->
<g id="node3" class="node">
<title>SchoolZone</title>
<ellipse fill="gold" stroke="black" cx="410.38" cy="-545.02" rx="76.01" ry="18.92"/>
<text xml:space="preserve" text-anchor="middle" x="410.38" y="-539.2" font-family="Arial Bold" font-size="16.00">SchoolZone</text>
</g>
<!-- ClearRoad&#45;&gt;SchoolZone -->
<g id="edge1" class="edge">
<title>ClearRoad&#45;&gt;SchoolZone</title>
<path fill="none" stroke="dodgerblue" stroke-width="1.5" d="M97.39,-663.02C111.94,-683.5 138.25,-714.94 170.12,-728.02 200.18,-740.36 288.67,-745.02 316.37,-728.02 370.58,-694.76 394.41,-618.94 403.87,-576.06"/>
<polygon fill="dodgerblue" stroke="dodgerblue" stroke-width="1.5" points="407.28,-576.87 405.86,-566.37 400.42,-575.46 407.28,-576.87"/>
<text xml:space="preserve" text-anchor="middle" x="243.24" y="-757.29" font-family="Arial" font-size="14.00">Maintain</text>
<text xml:space="preserve" text-anchor="middle" x="243.24" y="-741.54" font-family="Arial" font-size="14.00">p=0.70, r=10</text>
</g>
<!-- ClearRoad&#45;&gt;SchoolZone -->
<g id="edge3" class="edge">
<title>ClearRoad&#45;&gt;SchoolZone</title>
<path fill="none" stroke="dodgerblue" stroke-width="1.5" d="M118.54,-660.6C165.48,-681.33 252.27,-710.27 316.37,-677.02 357.41,-655.73 384.18,-607.09 398.03,-575.17"/>
<polygon fill="dodgerblue" stroke="dodgerblue" stroke-width="1.5" points="401.25,-576.52 401.84,-565.94 394.78,-573.85 401.25,-576.52"/>
<text xml:space="preserve" text-anchor="middle" x="243.24" y="-710.33" font-family="Arial" font-size="14.00">Accelerate</text>
<text xml:space="preserve" text-anchor="middle" x="243.24" y="-694.58" font-family="Arial" font-size="14.00">p=0.60, r=15</text>
</g>
<!-- ClearRoad&#45;&gt;SchoolZone -->
<g id="edge6" class="edge">
<title>ClearRoad&#45;&gt;SchoolZone</title>
<path fill="none" stroke="dodgerblue" stroke-width="1.5" d="M151.1,-641C214.06,-637.78 301.44,-632.28 316.37,-626.02 343.9,-614.47 369.04,-591.47 386.22,-572.92"/>
<polygon fill="dodgerblue" stroke="dodgerblue" stroke-width="1.5" points="388.65,-575.46 392.71,-565.67 383.43,-570.79 388.65,-575.46"/>
<text xml:space="preserve" text-anchor="middle" x="243.24" y="-658.08" font-family="Arial" font-size="14.00">Decelerate</text>
<text xml:space="preserve" text-anchor="middle" x="243.24" y="-642.33" font-family="Arial" font-size="14.00">p=0.50, r=5</text>
</g>
<!-- PedCrossing -->
<g id="node4" class="node">
<title>PedCrossing</title>
<ellipse fill="gold" stroke="black" cx="1057.15" cy="-502.02" rx="80.79" ry="18.92"/>
<text xml:space="preserve" text-anchor="middle" x="1057.15" y="-496.2" font-family="Arial Bold" font-size="16.00">PedCrossing</text>
</g>
<!-- ClearRoad&#45;&gt;PedCrossing -->
<g id="edge2" class="edge">
<title>ClearRoad&#45;&gt;PedCrossing</title>
<path fill="none" stroke="firebrick" stroke-dasharray="5,2" d="M89.44,-663.29C98.21,-696.87 121.42,-765.36 170.12,-795.02 290.19,-868.17 349.89,-834.66 486.4,-801.02 707.81,-746.45 938.38,-588.79 1022.73,-527.15"/>
<polygon fill="firebrick" stroke="firebrick" points="1024.62,-530.1 1030.6,-521.36 1020.47,-524.46 1024.62,-530.1"/>
<text xml:space="preserve" text-anchor="middle" x="576.4" y="-814.23" font-family="Arial" font-size="14.00">Maintain</text>
<text xml:space="preserve" text-anchor="middle" x="576.4" y="-798.48" font-family="Arial" font-size="14.00">p=0.30, r=&#45;10</text>
</g>
<!-- Intersection -->
<g id="node5" class="node">
<title>Intersection</title>
<ellipse fill="gold" stroke="black" cx="741.88" cy="-412.02" rx="75.48" ry="18.92"/>
<text xml:space="preserve" text-anchor="middle" x="741.88" y="-406.2" font-family="Arial Bold" font-size="16.00">Intersection</text>
</g>
<!-- ClearRoad&#45;&gt;Intersection -->
<g id="edge7" class="edge">
<title>ClearRoad&#45;&gt;Intersection</title>
<path fill="none" stroke="dodgerblue" stroke-width="1.5" d="M90.93,-663C101.35,-692.97 126.23,-750.29 170.12,-774.02 227.29,-804.94 254.37,-793.54 316.37,-774.02 488.09,-719.97 549.15,-692.21 648.4,-542.02 669.18,-510.57 644.25,-489.93 665.82,-459.02 672.55,-449.38 681.95,-441.31 691.83,-434.72"/>
<polygon fill="dodgerblue" stroke="dodgerblue" stroke-width="1.5" points="693.55,-437.77 700.27,-429.58 689.91,-431.8 693.55,-437.77"/>
<text xml:space="preserve" text-anchor="middle" x="410.38" y="-785.16" font-family="Arial" font-size="14.00">ChangeLane</text>
<text xml:space="preserve" text-anchor="middle" x="410.38" y="-769.41" font-family="Arial" font-size="14.00">p=0.80, r=20</text>
</g>
<!-- TrafficJam -->
<g id="node6" class="node">
<title>TrafficJam</title>
<ellipse fill="orange" stroke="black" cx="741.88" cy="-221.02" rx="68.06" ry="18.92"/>
<text xml:space="preserve" text-anchor="middle" x="741.88" y="-215.2" font-family="Arial Bold" font-size="16.00" fill="white">TrafficJam</text>
</g>
<!-- ClearRoad&#45;&gt;TrafficJam -->
<g id="edge8" class="edge">
<title>ClearRoad&#45;&gt;TrafficJam</title>
<path fill="none" stroke="firebrick" stroke-dasharray="5,2" d="M141.79,-633.97C151.25,-632.31 160.96,-630.61 170.12,-629.02 202.6,-623.38 294.46,-628.66 316.37,-604.02 367.17,-546.9 281.53,-315.76 334.37,-260.52 378.05,-214.85 558,-213.63 663.26,-217.1"/>
<polygon fill="firebrick" stroke="firebrick" points="662.83,-220.59 672.95,-217.44 663.08,-213.59 662.83,-220.59"/>
<text xml:space="preserve" text-anchor="middle" x="410.38" y="-278.72" font-family="Arial" font-size="14.00">ChangeLane</text>
<text xml:space="preserve" text-anchor="middle" x="410.38" y="-262.97" font-family="Arial" font-size="14.00">p=0.20, r=&#45;30</text>
</g>
<!-- Obstacle -->
<g id="node7" class="node">
<title>Obstacle</title>
<ellipse fill="orange" stroke="black" cx="1057.15" cy="-174.02" rx="59.57" ry="18.92"/>
<text xml:space="preserve" text-anchor="middle" x="1057.15" y="-168.2" font-family="Arial Bold" font-size="16.00" fill="white">Obstacle</text>
</g>
<!-- ClearRoad&#45;&gt;Obstacle -->
<g id="edge4" class="edge">
<title>ClearRoad&#45;&gt;Obstacle</title>
<path fill="none" stroke="firebrick" stroke-dasharray="5,2" d="M129.34,-629.8C141.18,-623.77 152.62,-615.42 159.59,-604.02 175.19,-578.52 149.82,-87.97 170.12,-66.02 218.07,-14.17 417.51,-50.58 486.4,-35.02 494.69,-33.15 496.02,-29.99 504.4,-28.52 567.44,-17.49 584.4,-27.54 648.4,-28.52 786.21,-30.63 846.29,42.21 958.36,-38.02 976.89,-51.28 964.5,-66.57 976.36,-86.02 990.57,-109.32 1011.41,-132.05 1028.23,-148.57"/>
<polygon fill="firebrick" stroke="firebrick" points="1025.4,-150.7 1035.03,-155.11 1030.25,-145.65 1025.4,-150.7"/>
<text xml:space="preserve" text-anchor="middle" x="576.4" y="-46.72" font-family="Arial" font-size="14.00">Accelerate</text>
<text xml:space="preserve" text-anchor="middle" x="576.4" y="-30.97" font-family="Arial" font-size="14.00">p=0.40, r=&#45;50</text>
</g>
<!-- BehindCar&#45;&gt;SchoolZone -->
<g id="edge9" class="edge">
<title>BehindCar&#45;&gt;SchoolZone</title>
<path fill="none" stroke="dodgerblue" stroke-width="1.5" d="M103.19,-464.38C119.29,-479.51 144.24,-500.17 170.12,-511.02 217.89,-531.04 275.24,-539.66 321.81,-543.22"/>
<polygon fill="dodgerblue" stroke="dodgerblue" stroke-width="1.5" points="321.54,-546.71 331.76,-543.9 322.02,-539.72 321.54,-546.71"/>
<text xml:space="preserve" text-anchor="middle" x="243.24" y="-560.89" font-family="Arial" font-size="14.00">Decelerate</text>
<text xml:space="preserve" text-anchor="middle" x="243.24" y="-545.14" font-family="Arial" font-size="14.00">p=0.60, r=10</text>
</g>
<!-- BehindCar&#45;&gt;PedCrossing -->
<g id="edge10" class="edge">
<title>BehindCar&#45;&gt;PedCrossing</title>
<path fill="none" stroke="dodgerblue" stroke-dasharray="5,2" d="M146.02,-454.25C227.5,-464.79 376.49,-482.48 504.4,-489.02 568.31,-492.29 592.93,-520.95 648.4,-489.02 661.76,-481.33 652.46,-466.71 665.82,-459.02 695.01,-442.22 788.91,-441.01 817.36,-459.02 833.15,-469.01 819.69,-486.85 835.36,-497.02 846.42,-504.2 909.32,-505.1 965.16,-504.41"/>
<polygon fill="dodgerblue" stroke="dodgerblue" points="965.12,-507.91 975.07,-504.27 965.02,-500.91 965.12,-507.91"/>
<text xml:space="preserve" text-anchor="middle" x="576.4" y="-522.16" font-family="Arial" font-size="14.00">Decelerate</text>
<text xml:space="preserve" text-anchor="middle" x="576.4" y="-506.41" font-family="Arial" font-size="14.00">p=0.40, r=5</text>
</g>
<!-- BehindCar&#45;&gt;Intersection -->
<g id="edge12" class="edge">
<title>BehindCar&#45;&gt;Intersection</title>
<path fill="none" stroke="dodgerblue" stroke-width="1.5" d="M104.53,-427.58C120.88,-413.02 145.45,-393.2 170.12,-381.02 306.39,-313.75 352.91,-321.19 504.4,-309.02 568.19,-303.9 589.95,-282.95 648.4,-309.02 682.05,-324.03 708.56,-358 724.42,-382.84"/>
<polygon fill="dodgerblue" stroke="dodgerblue" stroke-width="1.5" points="721.35,-384.54 729.56,-391.24 727.32,-380.89 721.35,-384.54"/>
<text xml:space="preserve" text-anchor="middle" x="410.38" y="-342.03" font-family="Arial" font-size="14.00">ChangeLane</text>
<text xml:space="preserve" text-anchor="middle" x="410.38" y="-326.28" font-family="Arial" font-size="14.00">p=0.50, r=15</text>
</g>
<!-- BehindCar&#45;&gt;Intersection -->
<g id="edge13" class="edge">
<title>BehindCar&#45;&gt;Intersection</title>
<path fill="none" stroke="dodgerblue" stroke-width="1.5" d="M136.76,-433.74C236.03,-411.77 460.17,-369.92 648.4,-391.02 657.93,-392.09 667.93,-393.76 677.67,-395.71"/>
<polygon fill="dodgerblue" stroke="dodgerblue" stroke-width="1.5" points="676.65,-399.07 687.16,-397.72 678.1,-392.22 676.65,-399.07"/>
<text xml:space="preserve" text-anchor="middle" x="410.38" y="-416.47" font-family="Arial" font-size="14.00">Stop</text>
<text xml:space="preserve" text-anchor="middle" x="410.38" y="-400.72" font-family="Arial" font-size="14.00">p=1.00, r=10</text>
</g>
<!-- BehindCar&#45;&gt;TrafficJam -->
<g id="edge11" class="edge">
<title>BehindCar&#45;&gt;TrafficJam</title>
<path fill="none" stroke="firebrick" stroke-width="1.5" d="M95.45,-427.21C109.99,-401.93 138.24,-356.41 170.12,-324.02 233.25,-259.86 248.71,-233.19 334.37,-205.52 451.47,-167.69 597.49,-188.54 678.81,-205.71"/>
<polygon fill="firebrick" stroke="firebrick" stroke-width="1.5" points="677.83,-209.08 688.35,-207.78 679.32,-202.24 677.83,-209.08"/>
<text xml:space="preserve" text-anchor="middle" x="410.38" y="-223.72" font-family="Arial" font-size="14.00">ChangeLane</text>
<text xml:space="preserve" text-anchor="middle" x="410.38" y="-207.97" font-family="Arial" font-size="14.00">p=0.50, r=&#45;30</text>
</g>
<!-- SchoolZone&#45;&gt;PedCrossing -->
<g id="edge14" class="edge">
<title>SchoolZone&#45;&gt;PedCrossing</title>
<path fill="none" stroke="firebrick" stroke-width="1.5" d="M486.03,-547.72C550.59,-549.35 635.53,-549.57 648.4,-540.02 668.48,-525.12 645.58,-501.21 665.82,-486.52 720.32,-446.95 754.96,-461.19 817.36,-486.52 827.7,-490.72 825.03,-499.82 835.36,-504.02 882.38,-523.11 939.8,-521.92 984.3,-516.33"/>
<polygon fill="firebrick" stroke="firebrick" stroke-width="1.5" points="984.51,-519.83 993.94,-515 983.56,-512.89 984.51,-519.83"/>
<text xml:space="preserve" text-anchor="middle" x="741.88" y="-504.72" font-family="Arial" font-size="14.00">Maintain</text>
<text xml:space="preserve" text-anchor="middle" x="741.88" y="-488.97" font-family="Arial" font-size="14.00">p=0.60, r=&#45;10</text>
</g>
<!-- SchoolZone&#45;&gt;PedCrossing -->
<g id="edge17" class="edge">
<title>SchoolZone&#45;&gt;PedCrossing</title>
<path fill="none" stroke="dodgerblue" stroke-dasharray="5,2" d="M486.51,-546.77C492.56,-546.87 498.58,-546.96 504.4,-547.02 568.39,-547.71 584.48,-550.21 648.4,-547.02 786.67,-540.12 820.92,-532.72 958.36,-516.02 964.38,-515.29 970.59,-514.49 976.83,-513.67"/>
<polygon fill="dodgerblue" stroke="dodgerblue" points="977.13,-517.16 986.58,-512.35 976.2,-510.22 977.13,-517.16"/>
<text xml:space="preserve" text-anchor="middle" x="741.88" y="-564.3" font-family="Arial" font-size="14.00">Decelerate</text>
<text xml:space="preserve" text-anchor="middle" x="741.88" y="-548.55" font-family="Arial" font-size="14.00">p=0.30, r=10</text>
</g>
<!-- SchoolZone&#45;&gt;Intersection -->
<g id="edge16" class="edge">
<title>SchoolZone&#45;&gt;Intersection</title>
<path fill="none" stroke="dodgerblue" stroke-width="1.5" d="M425.54,-526.31C442.06,-505.98 471.36,-474.29 504.4,-458.52 562.74,-430.68 585.14,-451.35 648.4,-438.02 659.18,-435.75 670.56,-432.91 681.51,-429.96"/>
<polygon fill="dodgerblue" stroke="dodgerblue" stroke-width="1.5" points="682.29,-433.38 690.99,-427.34 680.42,-426.63 682.29,-433.38"/>
<text xml:space="preserve" text-anchor="middle" x="576.4" y="-476.72" font-family="Arial" font-size="14.00">Decelerate</text>
<text xml:space="preserve" text-anchor="middle" x="576.4" y="-460.97" font-family="Arial" font-size="14.00">p=0.70, r=20</text>
</g>
<!-- SchoolZone&#45;&gt;Intersection -->
<g id="edge18" class="edge">
<title>SchoolZone&#45;&gt;Intersection</title>
<path fill="none" stroke="dodgerblue" stroke-width="1.5" d="M422.56,-525.91C444.42,-488.86 491.78,-410.32 504.4,-403.52 531.06,-389.14 605.51,-394.15 663.83,-400.98"/>
<polygon fill="dodgerblue" stroke="dodgerblue" stroke-width="1.5" points="663.4,-404.46 673.75,-402.19 664.25,-397.51 663.4,-404.46"/>
<text xml:space="preserve" text-anchor="middle" x="576.4" y="-421.72" font-family="Arial" font-size="14.00">Stop</text>
<text xml:space="preserve" text-anchor="middle" x="576.4" y="-405.97" font-family="Arial" font-size="14.00">p=1.00, r=15</text>
</g>
<!-- SchoolZone&#45;&gt;Obstacle -->
<g id="edge15" class="edge">
<title>SchoolZone&#45;&gt;Obstacle</title>
<path fill="none" stroke="firebrick" stroke-dasharray="5,2" d="M427.84,-526.29C445.41,-505.18 472.58,-469.08 486.4,-433.02 506.64,-380.2 465.36,-347.96 504.4,-307.02 504.4,-307.02 958.36,-220.02 958.36,-220.02 978.05,-213.62 998.93,-204.19 1016.32,-195.53"/>
<polygon fill="firebrick" stroke="firebrick" points="1017.44,-198.89 1024.77,-191.24 1014.27,-192.65 1017.44,-198.89"/>
<text xml:space="preserve" text-anchor="middle" x="741.88" y="-293.2" font-family="Arial" font-size="14.00">Maintain</text>
<text xml:space="preserve" text-anchor="middle" x="741.88" y="-277.45" font-family="Arial" font-size="14.00">p=0.40, r=&#45;30</text>
</g>
<!-- PedCrossing&#45;&gt;Obstacle -->
<g id="edge20" class="edge">
<title>PedCrossing&#45;&gt;Obstacle</title>
<path fill="none" stroke="firebrick" stroke-dasharray="5,2" d="M1000.96,-488.2C958.84,-474.42 904.64,-448.54 881.37,-402.77 836.99,-315.5 901.79,-267.46 976.36,-204.02 983.01,-198.36 990.83,-193.73 998.94,-189.94"/>
<polygon fill="firebrick" stroke="firebrick" points="1000.04,-193.27 1007.9,-186.17 997.32,-186.82 1000.04,-193.27"/>
<text xml:space="preserve" text-anchor="middle" x="896.86" y="-389.47" font-family="Arial" font-size="14.00">Decelerate</text>
<text xml:space="preserve" text-anchor="middle" x="896.86" y="-373.72" font-family="Arial" font-size="14.00">p=0.30, r=&#45;20</text>
</g>
<!-- Destination -->
<g id="node8" class="node">
<title>Destination</title>
<ellipse fill="crimson" stroke="black" cx="1328.02" cy="-126.02" rx="72.83" ry="72.83"/>
<ellipse fill="none" stroke="black" cx="1328.02" cy="-126.02" rx="76.83" ry="76.83"/>
<text xml:space="preserve" text-anchor="middle" x="1328.02" y="-120.2" font-family="Arial Bold" font-size="16.00" fill="white">Destination</text>
</g>
<!-- PedCrossing&#45;&gt;Destination -->
<g id="edge19" class="edge">
<title>PedCrossing&#45;&gt;Destination</title>
<path fill="none" stroke="dodgerblue" stroke-width="1.5" d="M1112.54,-516.2C1150.39,-522.64 1199.86,-523.74 1233.19,-497.02 1276.79,-462.06 1303.61,-312.83 1316.87,-214.61"/>
<polygon fill="dodgerblue" stroke="dodgerblue" stroke-width="1.5" points="1320.32,-215.23 1318.16,-204.85 1313.38,-214.31 1320.32,-215.23"/>
<text xml:space="preserve" text-anchor="middle" x="1194.56" y="-538.19" font-family="Arial" font-size="14.00">Decelerate</text>
<text xml:space="preserve" text-anchor="middle" x="1194.56" y="-522.44" font-family="Arial" font-size="14.00">p=0.70, r=50</text>
</g>
<!-- PedCrossing&#45;&gt;Destination -->
<g id="edge21" class="edge">
<title>PedCrossing&#45;&gt;Destination</title>
<path fill="none" stroke="dodgerblue" stroke-width="1.5" d="M1111.79,-487.79C1123.48,-483.58 1135.47,-478.36 1145.94,-472.02 1151.18,-468.85 1150.51,-465.38 1155.94,-462.52 1186.99,-446.15 1207.45,-469.9 1233.19,-446.02 1296.81,-386.99 1318.09,-287.37 1324.81,-214.93"/>
<polygon fill="dodgerblue" stroke="dodgerblue" stroke-width="1.5" points="1328.26,-215.62 1325.61,-205.36 1321.29,-215.04 1328.26,-215.62"/>
<text xml:space="preserve" text-anchor="middle" x="1194.56" y="-480.72" font-family="Arial" font-size="14.00">Stop</text>
<text xml:space="preserve" text-anchor="middle" x="1194.56" y="-464.97" font-family="Arial" font-size="14.00">p=1.00, r=40</text>
</g>
<!-- Intersection&#45;&gt;PedCrossing -->
<g id="edge32" class="edge">
<title>Intersection&#45;&gt;PedCrossing</title>
<path fill="none" stroke="firebrick" stroke-dasharray="5,2" d="M782.42,-428.41C798.61,-434.63 817.67,-441.34 835.36,-446.02 888.94,-460.2 904.76,-452.45 958.36,-466.52 967.37,-468.89 985.01,-475.11 1002.84,-481.7"/>
<polygon fill="firebrick" stroke="firebrick" points="1001.59,-484.97 1012.19,-485.18 1004.04,-478.41 1001.59,-484.97"/>
<text xml:space="preserve" text-anchor="middle" x="896.86" y="-484.72" font-family="Arial" font-size="14.00">ChangeLane</text>
<text xml:space="preserve" text-anchor="middle" x="896.86" y="-468.97" font-family="Arial" font-size="14.00">p=0.30, r=&#45;10</text>
</g>
<!-- Intersection&#45;&gt;TrafficJam -->
<g id="edge28" class="edge">
<title>Intersection&#45;&gt;TrafficJam</title>
<path fill="none" stroke="firebrick" stroke-dasharray="5,2" d="M673.26,-403.94C634,-395.41 587.78,-377.86 563.2,-341.77 528.22,-290.44 613.62,-254.93 678.06,-236.29"/>
<polygon fill="firebrick" stroke="firebrick" points="678.87,-239.7 687.55,-233.63 676.98,-232.96 678.87,-239.7"/>
<text xml:space="preserve" text-anchor="middle" x="576.4" y="-328.47" font-family="Arial" font-size="14.00">Maintain</text>
<text xml:space="preserve" text-anchor="middle" x="576.4" y="-312.72" font-family="Arial" font-size="14.00">p=0.40, r=&#45;20</text>
</g>
<!-- Intersection&#45;&gt;Obstacle -->
<g id="edge30" class="edge">
<title>Intersection&#45;&gt;Obstacle</title>
<path fill="none" stroke="firebrick" stroke-dasharray="5,2" d="M754.19,-393.08C777.48,-354.2 829.15,-268.66 835.36,-264.52 881.48,-233.78 914.46,-277.85 958.36,-244.02 973.81,-232.12 962.15,-217.36 976.36,-204.02 982.59,-198.18 990.06,-193.44 997.91,-189.61"/>
<polygon fill="firebrick" stroke="firebrick" points="999.18,-192.88 1006.97,-185.69 996.4,-186.45 999.18,-192.88"/>
<text xml:space="preserve" text-anchor="middle" x="896.86" y="-282.72" font-family="Arial" font-size="14.00">Decelerate</text>
<text xml:space="preserve" text-anchor="middle" x="896.86" y="-266.97" font-family="Arial" font-size="14.00">p=0.20, r=&#45;30</text>
</g>
<!-- Intersection&#45;&gt;Destination -->
<g id="edge27" class="edge">
<title>Intersection&#45;&gt;Destination</title>
<path fill="none" stroke="dodgerblue" stroke-width="1.5" d="M809.78,-420.69C853.54,-423.71 911.14,-422.55 958.36,-404.02 968.19,-400.16 966.91,-393.22 976.36,-388.52 1045.39,-354.2 1071.06,-370.36 1145.94,-352.02 1185,-342.45 1202.48,-354 1233.19,-328.02 1268.33,-298.29 1291.07,-252.54 1305.36,-212.09"/>
<polygon fill="dodgerblue" stroke="dodgerblue" stroke-width="1.5" points="1308.64,-213.31 1308.53,-202.71 1302.01,-211.07 1308.64,-213.31"/>
<text xml:space="preserve" text-anchor="middle" x="1057.15" y="-406.72" font-family="Arial" font-size="14.00">Maintain</text>
<text xml:space="preserve" text-anchor="middle" x="1057.15" y="-390.97" font-family="Arial" font-size="14.00">p=0.60, r=40</text>
</g>
<!-- Intersection&#45;&gt;Destination -->
<g id="edge29" class="edge">
<title>Intersection&#45;&gt;Destination</title>
<path fill="none" stroke="dodgerblue" stroke-width="1.5" d="M775.96,-394.72C793.27,-386.26 815.04,-376.52 835.36,-370.02 888.41,-353.06 912.4,-377.47 958.36,-346.02 970.73,-337.56 964.55,-326.73 976.36,-317.52 1038.92,-268.78 1073.06,-293.28 1145.94,-262.02 1186.42,-244.66 1197.51,-240.85 1233.19,-215.02 1244.02,-207.18 1254.89,-198.17 1265.19,-188.96"/>
<polygon fill="dodgerblue" stroke="dodgerblue" stroke-width="1.5" points="1267.39,-191.7 1272.41,-182.37 1262.67,-186.53 1267.39,-191.7"/>
<text xml:space="preserve" text-anchor="middle" x="1057.15" y="-335.72" font-family="Arial" font-size="14.00">Decelerate</text>
<text xml:space="preserve" text-anchor="middle" x="1057.15" y="-319.97" font-family="Arial" font-size="14.00">p=0.80, r=50</text>
</g>
<!-- Intersection&#45;&gt;Destination -->
<g id="edge31" class="edge">
<title>Intersection&#45;&gt;Destination</title>
<path fill="none" stroke="dodgerblue" stroke-width="1.5" d="M798.04,-425.06C877.61,-441.23 1028,-461.79 1145.94,-419.02 1233.1,-387.41 1281.1,-286.62 1305.41,-212.04"/>
<polygon fill="dodgerblue" stroke="dodgerblue" stroke-width="1.5" points="1308.61,-213.53 1308.28,-202.94 1301.93,-211.42 1308.61,-213.53"/>
<text xml:space="preserve" text-anchor="middle" x="1057.15" y="-462.66" font-family="Arial" font-size="14.00">ChangeLane</text>
<text xml:space="preserve" text-anchor="middle" x="1057.15" y="-446.91" font-family="Arial" font-size="14.00">p=0.70, r=45</text>
</g>
<!-- TrafficJam&#45;&gt;Intersection -->
<g id="edge23" class="edge">
<title>TrafficJam&#45;&gt;Intersection</title>
<path fill="none" stroke="dodgerblue" stroke-width="1.5" d="M699.92,-236.23C633.46,-262.56 516.34,-319.54 565.45,-378.77 587.69,-405.6 624.17,-415.34 658.19,-417.79"/>
<polygon fill="dodgerblue" stroke="dodgerblue" stroke-width="1.5" points="657.67,-421.27 667.83,-418.26 658.01,-414.28 657.67,-421.27"/>
<text xml:space="preserve" text-anchor="middle" x="576.4" y="-365.47" font-family="Arial" font-size="14.00">Maintain</text>
<text xml:space="preserve" text-anchor="middle" x="576.4" y="-349.72" font-family="Arial" font-size="14.00">p=0.60, r=10</text>
</g>
<!-- TrafficJam&#45;&gt;Obstacle -->
<g id="edge22" class="edge">
<title>TrafficJam&#45;&gt;Obstacle</title>
<path fill="none" stroke="firebrick" stroke-dasharray="5,2" d="M777.66,-204.69C794.67,-197.48 815.68,-189.7 835.36,-185.52 884.99,-174.98 942.24,-172.26 986,-172.09"/>
<polygon fill="firebrick" stroke="firebrick" points="985.88,-175.59 995.88,-172.1 985.88,-168.59 985.88,-175.59"/>
<text xml:space="preserve" text-anchor="middle" x="896.86" y="-203.72" font-family="Arial" font-size="14.00">Maintain</text>
<text xml:space="preserve" text-anchor="middle" x="896.86" y="-187.97" font-family="Arial" font-size="14.00">p=0.40, r=&#45;40</text>
</g>
<!-- TrafficJam&#45;&gt;Obstacle -->
<g id="edge25" class="edge">
<title>TrafficJam&#45;&gt;Obstacle</title>
<path fill="none" stroke="firebrick" stroke-dasharray="5,2" d="M749.07,-201.95C760.42,-170.52 787.88,-108.81 835.36,-83.52 883.61,-57.82 907.46,-63.58 958.36,-83.52 962.78,-85.25 1001.68,-121.92 1029.07,-148.04"/>
<polygon fill="firebrick" stroke="firebrick" points="1026.4,-150.34 1036.05,-154.72 1031.24,-145.28 1026.4,-150.34"/>
<text xml:space="preserve" text-anchor="middle" x="896.86" y="-101.72" font-family="Arial" font-size="14.00">ChangeLane</text>
<text xml:space="preserve" text-anchor="middle" x="896.86" y="-85.97" font-family="Arial" font-size="14.00">p=0.40, r=&#45;50</text>
</g>
<!-- TrafficJam&#45;&gt;Destination -->
<g id="edge24" class="edge">
<title>TrafficJam&#45;&gt;Destination</title>
<path fill="none" stroke="dodgerblue" stroke-width="1.5" d="M809.25,-224.04C924.8,-228.43 1157.81,-233.14 1233.19,-204.02 1243.75,-199.94 1253.99,-194.17 1263.58,-187.58"/>
<polygon fill="dodgerblue" stroke="dodgerblue" stroke-width="1.5" points="1265.48,-190.53 1271.5,-181.8 1261.36,-184.87 1265.48,-190.53"/>
<text xml:space="preserve" text-anchor="middle" x="1057.15" y="-245.5" font-family="Arial" font-size="14.00">ChangeLane</text>
<text xml:space="preserve" text-anchor="middle" x="1057.15" y="-229.75" font-family="Arial" font-size="14.00">p=0.60, r=30</text>
</g>
<!-- TrafficJam&#45;&gt;Destination -->
<g id="edge26" class="edge">
<title>TrafficJam&#45;&gt;Destination</title>
<path fill="none" stroke="dodgerblue" stroke-width="1.5" d="M747.67,-201.83C757.45,-167.31 783.32,-95.57 835.36,-66.02 965.1,7.64 1144.8,-46.1 1247.16,-88.39"/>
<polygon fill="dodgerblue" stroke="dodgerblue" stroke-width="1.5" points="1245.67,-91.56 1256.25,-92.21 1248.39,-85.11 1245.67,-91.56"/>
<text xml:space="preserve" text-anchor="middle" x="1057.15" y="-69.73" font-family="Arial" font-size="14.00">Stop</text>
<text xml:space="preserve" text-anchor="middle" x="1057.15" y="-53.98" font-family="Arial" font-size="14.00">p=1.00, r=20</text>
</g>
<!-- Obstacle&#45;&gt;ClearRoad -->
<g id="edge36" class="edge">
<title>Obstacle&#45;&gt;ClearRoad</title>
<path fill="none" stroke="dodgerblue" stroke-width="1.5" d="M1038.94,-155.83C1022.51,-138.27 997.23,-110.78 976.36,-86.02 968,-76.1 970.03,-68.71 958.36,-63.02 909.22,-39.08 889.42,-54.9 835.36,-63.02 526.53,-109.42 238.07,-190.11 170.12,-292.02 150.87,-320.88 177.89,-574.56 159.59,-604.02 154.68,-611.91 147.65,-618.35 139.84,-623.56"/>
<polygon fill="dodgerblue" stroke="dodgerblue" stroke-width="1.5" points="138.08,-620.54 131.2,-628.59 141.61,-626.59 138.08,-620.54"/>
<text xml:space="preserve" text-anchor="middle" x="576.4" y="-147.6" font-family="Arial" font-size="14.00">ChangeLane</text>
<text xml:space="preserve" text-anchor="middle" x="576.4" y="-131.85" font-family="Arial" font-size="14.00">p=0.50, r=20</text>
</g>
<!-- Obstacle&#45;&gt;Intersection -->
<g id="edge33" class="edge">
<title>Obstacle&#45;&gt;Intersection</title>
<path fill="none" stroke="dodgerblue" stroke-width="1.5" d="M1006.14,-184.09C994.95,-188.52 984.11,-194.88 976.36,-204.02 949.7,-235.47 987.95,-266.31 958.36,-295.02 918.59,-333.61 884.37,-289.64 835.36,-315.52 805.07,-331.52 778.96,-361.15 762.29,-383.38"/>
<polygon fill="dodgerblue" stroke="dodgerblue" stroke-width="1.5" points="759.46,-381.31 756.42,-391.46 765.13,-385.42 759.46,-381.31"/>
<text xml:space="preserve" text-anchor="middle" x="896.86" y="-333.72" font-family="Arial" font-size="14.00">Decelerate</text>
<text xml:space="preserve" text-anchor="middle" x="896.86" y="-317.97" font-family="Arial" font-size="14.00">p=0.60, r=10</text>
</g>
<!-- Obstacle&#45;&gt;TrafficJam -->
<g id="edge34" class="edge">
<title>Obstacle&#45;&gt;TrafficJam</title>
<path fill="none" stroke="firebrick" stroke-dasharray="5,2" d="M1022.51,-158.18C978.25,-139.65 898.67,-114.39 835.36,-138.52 806.55,-149.5 781.02,-174.04 764.12,-193.52"/>
<polygon fill="firebrick" stroke="firebrick" points="761.46,-191.24 757.73,-201.16 766.83,-195.73 761.46,-191.24"/>
<text xml:space="preserve" text-anchor="middle" x="896.86" y="-156.72" font-family="Arial" font-size="14.00">Decelerate</text>
<text xml:space="preserve" text-anchor="middle" x="896.86" y="-140.97" font-family="Arial" font-size="14.00">p=0.40, r=&#45;20</text>
</g>
<!-- Obstacle&#45;&gt;Destination -->
<g id="edge35" class="edge">
<title>Obstacle&#45;&gt;Destination</title>
<path fill="none" stroke="dodgerblue" stroke-width="1.5" d="M1116.62,-172.15C1150.88,-170.19 1194.84,-166.19 1233.19,-158.02 1236.73,-157.27 1240.33,-156.42 1243.95,-155.5"/>
<polygon fill="dodgerblue" stroke="dodgerblue" stroke-width="1.5" points="1244.61,-158.94 1253.34,-152.94 1242.77,-152.19 1244.61,-158.94"/>
<text xml:space="preserve" text-anchor="middle" x="1194.56" y="-187.31" font-family="Arial" font-size="14.00">ChangeLane</text>
<text xml:space="preserve" text-anchor="middle" x="1194.56" y="-171.56" font-family="Arial" font-size="14.00">p=0.50, r=30</text>
</g>
<!-- Obstacle&#45;&gt;Destination -->
<g id="edge37" class="edge">
<title>Obstacle&#45;&gt;Destination</title>
<path fill="none" stroke="dodgerblue" stroke-width="1.5" d="M1083.37,-156.71C1102.37,-144.76 1129.57,-129.93 1155.94,-123.52 1182.6,-117.04 1212.29,-115.57 1239.35,-116.32"/>
<polygon fill="dodgerblue" stroke="dodgerblue" stroke-width="1.5" points="1239.18,-119.82 1249.31,-116.73 1239.46,-112.82 1239.18,-119.82"/>
<text xml:space="preserve" text-anchor="middle" x="1194.56" y="-141.72" font-family="Arial" font-size="14.00">Stop</text>
<text xml:space="preserve" text-anchor="middle" x="1194.56" y="-125.97" font-family="Arial" font-size="14.00">p=1.00, r=20</text>
</g>
<!-- Destination&#45;&gt;Destination -->
<g id="edge38" class="edge">
<title>Destination&#45;&gt;Destination</title>
<path fill="none" stroke="dodgerblue" stroke-width="1.5" d="M1305.69,-199.8C1309.37,-210.02 1316.81,-216.85 1328.02,-216.85 1334.85,-216.85 1340.28,-214.32 1344.31,-210.02"/>
<polygon fill="dodgerblue" stroke="dodgerblue" stroke-width="1.5" points="1347.13,-212.14 1349.19,-201.75 1341.1,-208.58 1347.13,-212.14"/>
<text xml:space="preserve" text-anchor="middle" x="1328.02" y="-235.05" font-family="Arial" font-size="14.00">Stay</text>
<text xml:space="preserve" text-anchor="middle" x="1328.02" y="-219.3" font-family="Arial" font-size="14.00">p=1.00, r=0.0</text>
</g>
<!-- leg_safe -->
<g id="node9" class="node">
<title>leg_safe</title>
<ellipse fill="forestgreen" stroke="black" cx="84.06" cy="-947.02" rx="35.18" ry="18.92"/>
<text xml:space="preserve" text-anchor="middle" x="84.06" y="-941.2" font-family="Arial Bold" font-size="16.00" fill="white">Safe</text>
</g>
<!-- leg_mid -->
<g id="node10" class="node">
<title>leg_mid</title>
<ellipse fill="gold" stroke="black" cx="410.38" cy="-930.02" rx="30.94" ry="18.92"/>
<text xml:space="preserve" text-anchor="middle" x="410.38" y="-924.2" font-family="Arial Bold" font-size="16.00">Mid</text>
</g>
<!-- leg_safe&#45;&gt;leg_mid -->
<g id="edge39" class="edge">
<title>leg_safe&#45;&gt;leg_mid</title>
<path fill="none" stroke="dodgerblue" stroke-width="1.5" d="M119.46,-945.22C179.22,-942.09 302.02,-935.65 366.96,-932.24"/>
<polygon fill="dodgerblue" stroke="dodgerblue" stroke-width="1.5" points="367.07,-935.74 376.87,-931.73 366.7,-928.75 367.07,-935.74"/>
<text xml:space="preserve" text-anchor="middle" x="243.24" y="-944.91" font-family="Arial" font-size="14.00">Positive Reward (r &gt;= 0)</text>
</g>
<!-- leg_risky -->
<g id="node11" class="node">
<title>leg_risky</title>
<ellipse fill="orange" stroke="black" cx="741.88" cy="-930.02" rx="41.54" ry="18.92"/>
<text xml:space="preserve" text-anchor="middle" x="741.88" y="-924.2" font-family="Arial Bold" font-size="16.00" fill="white">Risky</text>
</g>
<!-- leg_mid&#45;&gt;leg_risky -->
<g id="edge40" class="edge">
<title>leg_mid&#45;&gt;leg_risky</title>
<path fill="none" stroke="firebrick" stroke-width="1.5" d="M441.79,-930.02C497.85,-930.02 618.12,-930.02 687.86,-930.02"/>
<polygon fill="firebrick" stroke="firebrick" stroke-width="1.5" points="687.59,-933.52 697.59,-930.02 687.59,-926.52 687.59,-933.52"/>
<text xml:space="preserve" text-anchor="middle" x="576.4" y="-932.47" font-family="Arial" font-size="14.00">Negative Reward (r &lt; 0)</text>
</g>
<!-- leg_terminal -->
<g id="node12" class="node">
<title>leg_terminal</title>
<ellipse fill="crimson" stroke="black" cx="1057.15" cy="-950.02" rx="57.45" ry="57.45"/>
<text xml:space="preserve" text-anchor="middle" x="1057.15" y="-944.2" font-family="Arial Bold" font-size="16.00" fill="white">Terminal</text>
</g>
<!-- leg_risky&#45;&gt;leg_terminal -->
<g id="edge41" class="edge">
<title>leg_risky&#45;&gt;leg_terminal</title>
<path fill="none" stroke="black" stroke-width="1.5" d="M783.51,-932.62C835.12,-935.91 924.95,-941.64 987.32,-945.63"/>
<polygon fill="black" stroke="black" stroke-width="1.5" points="986.95,-949.11 997.15,-946.25 987.39,-942.12 986.95,-949.11"/>
<text xml:space="preserve" text-anchor="middle" x="896.86" y="-946" font-family="Arial" font-size="14.00">High Prob (p &gt;= 0.5)</text>
</g>
<!-- leg_terminal&#45;&gt;leg_safe -->
<g id="edge42" class="edge">
<title>leg_terminal&#45;&gt;leg_safe</title>
<path fill="none" stroke="black" stroke-dasharray="5,2" d="M999.59,-956.12C986.1,-957.32 971.73,-958.41 958.36,-959.02 608.4,-975.09 519.59,-983.55 170.12,-959.02 156.77,-958.08 142.33,-956.33 129.21,-954.45"/>
<polygon fill="black" stroke="black" points="129.97,-951.02 119.57,-953 128.94,-957.95 129.97,-951.02"/>
<text xml:space="preserve" text-anchor="middle" x="576.4" y="-976.86" font-family="Arial" font-size="14.00">Low Prob (p &lt; 0.5)</text>
</g>
</g>
</svg>
