<?xml version="1.0" encoding="UTF-8" standalone="no"?>
<!DOCTYPE svg PUBLIC "-//W3C//DTD SVG 1.1//EN"
 "http://www.w3.org/Graphics/SVG/1.1/DTD/svg11.dtd">
<!-- Generated by graphviz version 13.1.2 (20250808.2320)
 -->
<!-- Pages: 1 -->
<svg width="864pt" height="489pt"
 viewBox="0.00 0.00 864.00 489.00" xmlns="http://www.w3.org/2000/svg" xmlns:xlink="http://www.w3.org/1999/xlink">
<g id="graph0" class="graph" transform="scale(0.638635 0.638635) rotate(0) translate(4 761.81)">
<polygon fill="white" stroke="none" points="-4,4 -4,-761.81 1348.89,-761.81 1348.89,4 -4,4"/>
<g id="clust1" class="cluster">
<title>cluster_safe</title>
<polygon fill="lightgreen" stroke="black" points="836,-8 836,-193.91 1111,-193.91 1111,-8 836,-8"/>
<text xml:space="preserve" text-anchor="middle" x="973.5" y="-174.71" font-family="Arial Bold" font-size="16.00">Safe States</text>
</g>
<g id="clust2" class="cluster">
<title>cluster_mid</title>
<polygon fill="lightyellow" stroke="black" points="347,-113.33 347,-749.81 828,-749.81 828,-113.33 347,-113.33"/>
<text xml:space="preserve" text-anchor="middle" x="587.5" y="-730.61" font-family="Arial Bold" font-size="16.00">Mid States</text>
</g>
<g id="clust3" class="cluster">
<title>cluster_risky</title>
<polygon fill="lightpink" stroke="black" points="101,-243.41 101,-409.07 338,-409.07 338,-243.41 101,-243.41"/>
<text xml:space="preserve" text-anchor="middle" x="219.5" y="-389.87" font-family="Arial Bold" font-size="16.00">Risky/Terminal</text>
</g>
<g id="clust4" class="cluster">
<title>cluster_legend</title>
<polygon fill="none" stroke="black" stroke-dasharray="5,2" points="1022,-247.41 1022,-749.81 1327,-749.81 1327,-247.41 1022,-247.41"/>
<text xml:space="preserve" text-anchor="middle" x="1174.5" y="-730.61" font-family="Arial Bold" font-size="16.00">Legend</text>
</g>
<!-- QuietResidential -->
<g id="node1" class="node">
<title>QuietResidential</title>
<ellipse fill="forestgreen" stroke="black" cx="945" cy="-140.25" rx="100.94" ry="18.92"/>
<text xml:space="preserve" text-anchor="middle" x="945" y="-134.42" font-family="Arial Bold" font-size="16.00" fill="white">QuietResidential</text>
</g>
<!-- OptimalFlow -->
<g id="node2" class="node">
<title>OptimalFlow</title>
<ellipse fill="forestgreen" stroke="black" cx="924" cy="-34.92" rx="79.73" ry="18.92"/>
<text xml:space="preserve" text-anchor="middle" x="924" y="-29.09" font-family="Arial Bold" font-size="16.00" fill="white">OptimalFlow</text>
</g>
<!-- QuietResidential&#45;&gt;OptimalFlow -->
<g id="edge12" class="edge">
<title>QuietResidential&#45;&gt;OptimalFlow</title>
<path fill="none" stroke="dodgerblue" stroke-width="1.5" d="M941.34,-121.25C938.24,-106 933.74,-83.84 930.1,-65.92"/>
<polygon fill="dodgerblue" stroke="dodgerblue" stroke-width="1.5" points="933.56,-65.38 928.14,-56.28 926.7,-66.78 933.56,-65.38"/>
<text xml:space="preserve" text-anchor="middle" x="976.23" y="-90.03" font-family="Arial" font-size="14.00">AdjustLights</text>
<text xml:space="preserve" text-anchor="middle" x="976.23" y="-74.28" font-family="Arial" font-size="14.00">p=1.00, r=30</text>
</g>
<!-- MixedTraffic -->
<g id="node7" class="node">
<title>MixedTraffic</title>
<ellipse fill="gold" stroke="black" cx="660" cy="-140.25" rx="77.6" ry="18.92"/>
<text xml:space="preserve" text-anchor="middle" x="660" y="-134.42" font-family="Arial Bold" font-size="16.00">MixedTraffic</text>
</g>
<!-- QuietResidential&#45;&gt;MixedTraffic -->
<g id="edge13" class="edge">
<title>QuietResidential&#45;&gt;MixedTraffic</title>
<path fill="none" stroke="dodgerblue" stroke-width="1.5" d="M843.67,-140.25C813.09,-140.25 779.75,-140.25 749.97,-140.25"/>
<polygon fill="dodgerblue" stroke="dodgerblue" stroke-width="1.5" points="750.15,-136.75 740.15,-140.25 750.15,-143.75 750.15,-136.75"/>
<text xml:space="preserve" text-anchor="middle" x="790.83" y="-161.45" font-family="Arial" font-size="14.00">IncreaseTransit</text>
<text xml:space="preserve" text-anchor="middle" x="790.83" y="-145.7" font-family="Arial" font-size="14.00">p=1.00, r=10</text>
</g>
<!-- OptimalFlow&#45;&gt;OptimalFlow -->
<g id="edge17" class="edge">
<title>OptimalFlow&#45;&gt;OptimalFlow</title>
<path fill="none" stroke="dodgerblue" stroke-width="1.5" d="M993.9,-44.38C1007.81,-43.32 1017.73,-40.16 1017.73,-34.92 1017.73,-31.31 1013.04,-28.69 1005.59,-27.06"/>
<polygon fill="dodgerblue" stroke="dodgerblue" stroke-width="1.5" points="1006.53,-23.66 996.15,-25.76 1005.57,-30.59 1006.53,-23.66"/>
<text xml:space="preserve" text-anchor="middle" x="1058.23" y="-37.37" font-family="Arial" font-size="14.00">Stay</text>
<text xml:space="preserve" text-anchor="middle" x="1058.23" y="-21.62" font-family="Arial" font-size="14.00">p=1.00, r=0.0</text>
</g>
<!-- BusyIntersection -->
<g id="node3" class="node">
<title>BusyIntersection</title>
<ellipse fill="gold" stroke="black" cx="670" cy="-696.14" rx="103.06" ry="18.92"/>
<text xml:space="preserve" text-anchor="middle" x="670" y="-690.32" font-family="Arial Bold" font-size="16.00">BusyIntersection</text>
</g>
<!-- BusyIntersection&#45;&gt;QuietResidential -->
<g id="edge2" class="edge">
<title>BusyIntersection&#45;&gt;QuietResidential</title>
<path fill="none" stroke="dodgerblue" stroke-width="1.5" d="M771.41,-692.34C841.43,-684.33 922,-660.26 922,-591.81 922,-591.81 922,-591.81 922,-311.86 922,-262.3 931.65,-205.36 938.45,-171.4"/>
<polygon fill="dodgerblue" stroke="dodgerblue" stroke-width="1.5" points="941.84,-172.29 940.43,-161.79 934.98,-170.88 941.84,-172.29"/>
<text xml:space="preserve" text-anchor="middle" x="968.12" y="-487.93" font-family="Arial" font-size="14.00">SuggestRoutes</text>
<text xml:space="preserve" text-anchor="middle" x="968.12" y="-472.18" font-family="Arial" font-size="14.00">p=1.00, r=10</text>
</g>
<!-- PedestrianCrowd -->
<g id="node4" class="node">
<title>PedestrianCrowd</title>
<ellipse fill="gold" stroke="black" cx="504" cy="-590.81" rx="104.12" ry="18.92"/>
<text xml:space="preserve" text-anchor="middle" x="504" y="-584.99" font-family="Arial Bold" font-size="16.00">PedestrianCrowd</text>
</g>
<!-- BusyIntersection&#45;&gt;PedestrianCrowd -->
<g id="edge3" class="edge">
<title>BusyIntersection&#45;&gt;PedestrianCrowd</title>
<path fill="none" stroke="firebrick" stroke-width="1.5" d="M581.73,-686.02C562.88,-680.6 544.29,-672.19 529.75,-659.23 519.05,-649.68 512.77,-635.2 509.1,-622.1"/>
<polygon fill="firebrick" stroke="firebrick" stroke-width="1.5" points="512.51,-621.33 506.83,-612.39 505.7,-622.92 512.51,-621.33"/>
<text xml:space="preserve" text-anchor="middle" x="574.38" y="-645.93" font-family="Arial" font-size="14.00">DeployOfficers</text>
<text xml:space="preserve" text-anchor="middle" x="574.38" y="-630.18" font-family="Arial" font-size="14.00">p=1.00, r=&#45;10</text>
</g>
<!-- BusyIntersection&#45;&gt;MixedTraffic -->
<g id="edge1" class="edge">
<title>BusyIntersection&#45;&gt;MixedTraffic</title>
<path fill="none" stroke="dodgerblue" stroke-width="1.5" d="M665.34,-676.89C656.99,-643.13 639.79,-568.49 633.75,-504.4 632.17,-487.66 623.3,-479.73 633.75,-466.57 655.67,-438.95 689.08,-476.18 711,-448.57 744.95,-405.8 693.61,-239.28 670.41,-170.86"/>
<polygon fill="dodgerblue" stroke="dodgerblue" stroke-width="1.5" points="673.72,-169.74 667.17,-161.42 667.1,-172.02 673.72,-169.74"/>
<text xml:space="preserve" text-anchor="middle" x="672.38" y="-487.93" font-family="Arial" font-size="14.00">AdjustLights</text>
<text xml:space="preserve" text-anchor="middle" x="672.38" y="-472.18" font-family="Arial" font-size="14.00">p=1.00, r=20</text>
</g>
<!-- PedestrianCrowd&#45;&gt;OptimalFlow -->
<g id="edge5" class="edge">
<title>PedestrianCrowd&#45;&gt;OptimalFlow</title>
<path fill="none" stroke="dodgerblue" stroke-width="1.5" d="M399.88,-589.22C252.29,-585.52 0,-567.37 0,-486.48 0,-486.48 0,-486.48 0,-139.25 0,-56.09 598.68,-39.85 832.24,-36.68"/>
<polygon fill="dodgerblue" stroke="dodgerblue" stroke-width="1.5" points="832.2,-40.19 842.15,-36.56 832.11,-33.19 832.2,-40.19"/>
<text xml:space="preserve" text-anchor="middle" x="46.5" y="-315.31" font-family="Arial" font-size="14.00">IncreaseTransit</text>
<text xml:space="preserve" text-anchor="middle" x="46.5" y="-299.56" font-family="Arial" font-size="14.00">p=1.00, r=50</text>
</g>
<!-- EventCongestion -->
<g id="node6" class="node">
<title>EventCongestion</title>
<ellipse fill="gold" stroke="black" cx="459" cy="-485.48" rx="104.12" ry="18.92"/>
<text xml:space="preserve" text-anchor="middle" x="459" y="-479.66" font-family="Arial Bold" font-size="16.00">EventCongestion</text>
</g>
<!-- PedestrianCrowd&#45;&gt;EventCongestion -->
<g id="edge6" class="edge">
<title>PedestrianCrowd&#45;&gt;EventCongestion</title>
<path fill="none" stroke="firebrick" stroke-width="1.5" d="M493.75,-571.77C490.7,-566.12 487.45,-559.82 484.75,-553.9 479.17,-541.67 473.74,-527.86 469.32,-515.93"/>
<polygon fill="firebrick" stroke="firebrick" stroke-width="1.5" points="472.75,-515.1 466.05,-506.9 466.17,-517.49 472.75,-515.1"/>
<text xml:space="preserve" text-anchor="middle" x="529.38" y="-540.6" font-family="Arial" font-size="14.00">DeployOfficers</text>
<text xml:space="preserve" text-anchor="middle" x="529.38" y="-524.85" font-family="Arial" font-size="14.00">p=1.00, r=&#45;20</text>
</g>
<!-- PedestrianCrowd&#45;&gt;MixedTraffic -->
<g id="edge4" class="edge">
<title>PedestrianCrowd&#45;&gt;MixedTraffic</title>
<path fill="none" stroke="dodgerblue" stroke-width="1.5" d="M551.88,-573.7C560.29,-568.69 567.96,-562.21 573,-553.9 579.78,-542.72 577.28,-476.97 570,-466.57 558.29,-449.85 539,-465.59 527.75,-448.57 520.03,-436.89 518.42,-427.5 527.75,-417.07 538.37,-405.19 587.82,-420.42 599,-409.07 631.45,-376.11 603.35,-245.43 619,-201.91 623.22,-190.19 630.21,-178.56 637.24,-168.66"/>
<polygon fill="dodgerblue" stroke="dodgerblue" stroke-width="1.5" points="639.89,-170.96 643.09,-160.86 634.29,-166.75 639.89,-170.96"/>
<text xml:space="preserve" text-anchor="middle" x="566.38" y="-435.27" font-family="Arial" font-size="14.00">AdjustLights</text>
<text xml:space="preserve" text-anchor="middle" x="566.38" y="-419.52" font-family="Arial" font-size="14.00">p=1.00, r=15</text>
</g>
<!-- ConstructionZone -->
<g id="node5" class="node">
<title>ConstructionZone</title>
<ellipse fill="gold" stroke="black" cx="484" cy="-312.86" rx="108.36" ry="18.92"/>
<text xml:space="preserve" text-anchor="middle" x="484" y="-307.04" font-family="Arial Bold" font-size="16.00">ConstructionZone</text>
</g>
<!-- ConstructionZone&#45;&gt;QuietResidential -->
<g id="edge7" class="edge">
<title>ConstructionZone&#45;&gt;QuietResidential</title>
<path fill="none" stroke="dodgerblue" stroke-width="1.5" d="M536.36,-295.96C604.83,-274.72 728.19,-235 831,-193.91 853.8,-184.8 878.61,-173.51 899.24,-163.72"/>
<polygon fill="dodgerblue" stroke="dodgerblue" stroke-width="1.5" points="900.68,-166.91 908.19,-159.44 897.66,-160.6 900.68,-166.91"/>
<text xml:space="preserve" text-anchor="middle" x="849.47" y="-220.11" font-family="Arial" font-size="14.00">SuggestRoutes</text>
<text xml:space="preserve" text-anchor="middle" x="849.47" y="-204.36" font-family="Arial" font-size="14.00">p=1.00, r=10</text>
</g>
<!-- ConstructionZone&#45;&gt;MixedTraffic -->
<g id="edge8" class="edge">
<title>ConstructionZone&#45;&gt;MixedTraffic</title>
<path fill="none" stroke="dodgerblue" stroke-width="1.5" d="M484.19,-293.61C485.39,-269.74 490.91,-227.91 513.75,-201.91 533.28,-179.69 562.24,-165.43 589.24,-156.36"/>
<polygon fill="dodgerblue" stroke="dodgerblue" stroke-width="1.5" points="590,-159.79 598.5,-153.47 587.91,-153.11 590,-159.79"/>
<text xml:space="preserve" text-anchor="middle" x="558.38" y="-220.11" font-family="Arial" font-size="14.00">DeployOfficers</text>
<text xml:space="preserve" text-anchor="middle" x="558.38" y="-204.36" font-family="Arial" font-size="14.00">p=1.00, r=20</text>
</g>
<!-- EventCongestion&#45;&gt;OptimalFlow -->
<g id="edge10" class="edge">
<title>EventCongestion&#45;&gt;OptimalFlow</title>
<path fill="none" stroke="dodgerblue" stroke-width="1.5" d="M425.36,-467.12C404.57,-454.27 379.85,-434.58 369,-409.07 332.55,-323.33 329.29,-261.38 401,-201.91 528.87,-95.85 725.24,-57.26 837.43,-43.43"/>
<polygon fill="dodgerblue" stroke="dodgerblue" stroke-width="1.5" points="837.58,-46.94 847.1,-42.29 836.76,-39.99 837.58,-46.94"/>
<text xml:space="preserve" text-anchor="middle" x="447.5" y="-220.11" font-family="Arial" font-size="14.00">IncreaseTransit</text>
<text xml:space="preserve" text-anchor="middle" x="447.5" y="-204.36" font-family="Arial" font-size="14.00">p=1.00, r=40</text>
</g>
<!-- EventCongestion&#45;&gt;ConstructionZone -->
<g id="edge9" class="edge">
<title>EventCongestion&#45;&gt;ConstructionZone</title>
<path fill="none" stroke="firebrick" stroke-width="1.5" d="M431.13,-466.81C425.32,-461.68 419.98,-455.56 416.75,-448.57 410.87,-435.86 412.76,-430.49 416.75,-417.07 425.15,-388.78 444.03,-361.01 459.65,-341.42"/>
<polygon fill="firebrick" stroke="firebrick" stroke-width="1.5" points="462.34,-343.65 466,-333.71 456.94,-339.2 462.34,-343.65"/>
<text xml:space="preserve" text-anchor="middle" x="462.88" y="-435.27" font-family="Arial" font-size="14.00">SuggestRoutes</text>
<text xml:space="preserve" text-anchor="middle" x="462.88" y="-419.52" font-family="Arial" font-size="14.00">p=1.00, r=&#45;30</text>
</g>
<!-- Gridlock -->
<g id="node8" class="node">
<title>Gridlock</title>
<ellipse fill="crimson" stroke="black" cx="170" cy="-312.86" rx="57.45" ry="57.45"/>
<ellipse fill="none" stroke="black" cx="170" cy="-312.86" rx="61.45" ry="61.45"/>
<text xml:space="preserve" text-anchor="middle" x="170" y="-307.04" font-family="Arial Bold" font-size="16.00" fill="white">Gridlock</text>
</g>
<!-- EventCongestion&#45;&gt;Gridlock -->
<g id="edge11" class="edge">
<title>EventCongestion&#45;&gt;Gridlock</title>
<path fill="none" stroke="firebrick" stroke-width="1.5" d="M368.04,-475.9C322.26,-470.15 272.56,-461.27 253.75,-448.57 229.5,-432.19 210.95,-406.2 197.54,-381.39"/>
<polygon fill="firebrick" stroke="firebrick" stroke-width="1.5" points="200.66,-379.8 192.97,-372.51 194.44,-383 200.66,-379.8"/>
<text xml:space="preserve" text-anchor="middle" x="298.38" y="-435.27" font-family="Arial" font-size="14.00">DeployOfficers</text>
<text xml:space="preserve" text-anchor="middle" x="298.38" y="-419.52" font-family="Arial" font-size="14.00">p=1.00, r=&#45;50</text>
</g>
<!-- MixedTraffic&#45;&gt;OptimalFlow -->
<g id="edge14" class="edge">
<title>MixedTraffic&#45;&gt;OptimalFlow</title>
<path fill="none" stroke="dodgerblue" stroke-width="1.5" d="M699.81,-123.66C745.91,-105.62 821.99,-75.84 872.54,-56.06"/>
<polygon fill="dodgerblue" stroke="dodgerblue" stroke-width="1.5" points="873.72,-59.36 881.75,-52.45 871.16,-52.84 873.72,-59.36"/>
<text xml:space="preserve" text-anchor="middle" x="869.7" y="-90.03" font-family="Arial" font-size="14.00">AdjustLights</text>
<text xml:space="preserve" text-anchor="middle" x="869.7" y="-74.28" font-family="Arial" font-size="14.00">p=1.00, r=40</text>
</g>
<!-- MixedTraffic&#45;&gt;BusyIntersection -->
<g id="edge15" class="edge">
<title>MixedTraffic&#45;&gt;BusyIntersection</title>
<path fill="none" stroke="firebrick" stroke-width="1.5" d="M672.47,-159.24C692.1,-189.36 728,-252.55 728,-311.86 728,-591.81 728,-591.81 728,-591.81 728,-620.32 711,-648.24 695.41,-667.86"/>
<polygon fill="firebrick" stroke="firebrick" stroke-width="1.5" points="692.91,-665.4 689.17,-675.32 698.28,-669.89 692.91,-665.4"/>
<text xml:space="preserve" text-anchor="middle" x="774.12" y="-487.93" font-family="Arial" font-size="14.00">SuggestRoutes</text>
<text xml:space="preserve" text-anchor="middle" x="774.12" y="-472.18" font-family="Arial" font-size="14.00">p=1.00, r=&#45;20</text>
</g>
<!-- MixedTraffic&#45;&gt;PedestrianCrowd -->
<g id="edge16" class="edge">
<title>MixedTraffic&#45;&gt;PedestrianCrowd</title>
<path fill="none" stroke="firebrick" stroke-width="1.5" d="M657.44,-159.48C646.67,-235.2 604.43,-522.35 579,-553.9 574.81,-559.09 569.68,-563.59 564.1,-567.46"/>
<polygon fill="firebrick" stroke="firebrick" stroke-width="1.5" points="562.34,-564.43 555.6,-572.6 565.97,-570.42 562.34,-564.43"/>
<text xml:space="preserve" text-anchor="middle" x="661.75" y="-435.27" font-family="Arial" font-size="14.00">IncreaseTransit</text>
<text xml:space="preserve" text-anchor="middle" x="661.75" y="-419.52" font-family="Arial" font-size="14.00">p=1.00, r=&#45;10</text>
</g>
<!-- Gridlock&#45;&gt;Gridlock -->
<g id="edge18" class="edge">
<title>Gridlock&#45;&gt;Gridlock</title>
<path fill="none" stroke="dodgerblue" stroke-width="1.5" d="M229.47,-329.3C238.96,-326.9 245.45,-321.42 245.45,-312.86 245.45,-308.32 243.62,-304.64 240.48,-301.83"/>
<polygon fill="dodgerblue" stroke="dodgerblue" stroke-width="1.5" points="242.02,-298.69 231.5,-297.43 238.94,-304.98 242.02,-298.69"/>
<text xml:space="preserve" text-anchor="middle" x="285.95" y="-315.31" font-family="Arial" font-size="14.00">Stay</text>
<text xml:space="preserve" text-anchor="middle" x="285.95" y="-299.56" font-family="Arial" font-size="14.00">p=1.00, r=0.0</text>
</g>
<!-- leg_safe -->
<g id="node9" class="node">
<title>leg_safe</title>
<ellipse fill="forestgreen" stroke="black" cx="1136" cy="-696.14" rx="35.18" ry="18.92"/>
<text xml:space="preserve" text-anchor="middle" x="1136" y="-690.32" font-family="Arial Bold" font-size="16.00" fill="white">Safe</text>
</g>
<!-- leg_mid -->
<g id="node10" class="node">
<title>leg_mid</title>
<ellipse fill="gold" stroke="black" cx="1061" cy="-590.81" rx="30.94" ry="18.92"/>
<text xml:space="preserve" text-anchor="middle" x="1061" y="-584.99" font-family="Arial Bold" font-size="16.00">Mid</text>
</g>
<!-- leg_safe&#45;&gt;leg_mid -->
<g id="edge19" class="edge">
<title>leg_safe&#45;&gt;leg_mid</title>
<path fill="none" stroke="dodgerblue" stroke-width="1.5" d="M1103.02,-689.02C1086.12,-684.03 1066.98,-675.1 1056.75,-659.23 1049.65,-648.21 1049.56,-633.97 1051.71,-621.41"/>
<polygon fill="dodgerblue" stroke="dodgerblue" stroke-width="1.5" points="1055.09,-622.34 1053.92,-611.81 1048.26,-620.77 1055.09,-622.34"/>
<text xml:space="preserve" text-anchor="middle" x="1129.88" y="-638.05" font-family="Arial" font-size="14.00">Positive Reward (r &gt;= 0)</text>
</g>
<!-- leg_risky -->
<g id="node11" class="node">
<title>leg_risky</title>
<ellipse fill="orange" stroke="black" cx="1074" cy="-485.48" rx="41.54" ry="18.92"/>
<text xml:space="preserve" text-anchor="middle" x="1074" y="-479.66" font-family="Arial Bold" font-size="16.00" fill="white">Risky</text>
</g>
<!-- leg_mid&#45;&gt;leg_risky -->
<g id="edge20" class="edge">
<title>leg_mid&#45;&gt;leg_risky</title>
<path fill="none" stroke="firebrick" stroke-width="1.5" d="M1051.92,-572.34C1045.99,-558.55 1040.31,-538.95 1046,-522.4 1047.13,-519.1 1048.7,-515.88 1050.53,-512.8"/>
<polygon fill="firebrick" stroke="firebrick" stroke-width="1.5" points="1053.24,-515.03 1056.15,-504.84 1047.52,-510.99 1053.24,-515.03"/>
<text xml:space="preserve" text-anchor="middle" x="1118" y="-532.72" font-family="Arial" font-size="14.00">Negative Reward (r &lt; 0)</text>
</g>
<!-- leg_terminal -->
<g id="node12" class="node">
<title>leg_terminal</title>
<ellipse fill="crimson" stroke="black" cx="1147" cy="-312.86" rx="57.45" ry="57.45"/>
<text xml:space="preserve" text-anchor="middle" x="1147" y="-307.04" font-family="Arial Bold" font-size="16.00" fill="white">Terminal</text>
</g>
<!-- leg_risky&#45;&gt;leg_terminal -->
<g id="edge21" class="edge">
<title>leg_risky&#45;&gt;leg_terminal</title>
<path fill="none" stroke="black" stroke-width="1.5" d="M1073.27,-466.24C1073.27,-452.39 1074.48,-433.06 1080,-417.07 1085.8,-400.25 1094.92,-383.45 1104.58,-368.44"/>
<polygon fill="black" stroke="black" stroke-width="1.5" points="1107.42,-370.5 1110.06,-360.24 1101.6,-366.61 1107.42,-370.5"/>
<text xml:space="preserve" text-anchor="middle" x="1141.5" y="-427.39" font-family="Arial" font-size="14.00">High Prob (p &gt;= 0.5)</text>
</g>
<!-- leg_terminal&#45;&gt;leg_safe -->
<g id="edge22" class="edge">
<title>leg_terminal&#45;&gt;leg_safe</title>
<path fill="none" stroke="black" stroke-dasharray="5,2" d="M1178.48,-361.21C1187.99,-378.11 1197.18,-397.76 1202,-417.07 1228.09,-521.48 1256.99,-566.7 1202,-659.23 1196.26,-668.88 1186.92,-676.1 1177.04,-681.44"/>
<polygon fill="black" stroke="black" points="1175.6,-678.25 1168.06,-685.69 1178.6,-684.58 1175.6,-678.25"/>
<text xml:space="preserve" text-anchor="middle" x="1289.01" y="-532.72" font-family="Arial" font-size="14.00">Low Prob (p &lt; 0.5)</text>
</g>
</g>
</svg>
